<svg xmlns="http://www.w3.org/2000/svg" width="153.173" height="37.043"><defs><linearGradient id="a" x1="-1.666" y1="11.279" x2="-1.668" y2="11.255" gradientUnits="objectBoundingBox"><stop offset="0" stop-color="#770001"/><stop offset="1" stop-color="#8f261d"/></linearGradient></defs><path d="M55.517 29.961a5.1 5.1 0 01-.276 1.643 4.2 4.2 0 01-2.276 2.486 4.785 4.785 0 01-2.031.4 4.934 4.934 0 01-2.127-.4 4.062 4.062 0 01-1.409-1.037 3.924 3.924 0 01-.766-1.446 5.594 5.594 0 01-.245-1.643 4.854 4.854 0 01.282-1.632 4.44 4.44 0 01.84-1.478 4.3 4.3 0 011.42-1.063 4.642 4.642 0 012-.409 4.966 4.966 0 012.127.409 4.057 4.057 0 011.42 1.063 4.148 4.148 0 01.819 1.478 5.849 5.849 0 01.222 1.629zm-8.194 0a4.355 4.355 0 00.25 1.5 3.477 3.477 0 00.723 1.2 3.419 3.419 0 001.154.8 3.844 3.844 0 001.5.287 4.03 4.03 0 001.542-.287 3.35 3.35 0 001.159-.8 3.557 3.557 0 00.723-1.2 4.355 4.355 0 00.25-1.5 4.4 4.4 0 00-.25-1.5 3.653 3.653 0 00-.723-1.223 3.344 3.344 0 00-1.159-.814 3.759 3.759 0 00-1.542-.3 3.589 3.589 0 00-1.5.3 3.387 3.387 0 00-1.138.814 3.483 3.483 0 00-.723 1.223 4.4 4.4 0 00-.265 1.5zm12.166-4.492c0 .186 0 .447.027.782s0 .707 0 1.111v5.03a13.635 13.635 0 01.574-1.446 15.345 15.345 0 01.787-1.563 14.4 14.4 0 01.968-1.5 9.107 9.107 0 011.159-1.276 5.593 5.593 0 011.2-.888 2.552 2.552 0 011.244-.335 1.755 1.755 0 011.063.3 1.877 1.877 0 01.6.883 5.753 5.753 0 01.271 1.4c.043.532.064 1.17.064 1.861v4.457h-.447a3.352 3.352 0 00-.5.053c0-.186.027-.415.037-.686s0-.569.037-.883 0-.633.027-.946 0-.617 0-.9v-2.211a7.977 7.977 0 00-.16-1.414 2.26 2.26 0 00-.372-.888.829.829 0 00-.686-.308 2.026 2.026 0 00-1.106.383 6.05 6.05 0 00-1.138 1.01 10.965 10.965 0 00-1.117 1.462 18.279 18.279 0 00-1.01 1.744c-.314.606-.6 1.218-.861 1.829a16.449 16.449 0 00-.633 1.733h-.867c0-.372.043-.893.053-1.6s0-1.393 0-2.127v-.744c0-.744 0-1.494-.048-2.26s-.074-1.43-.138-2a3.583 3.583 0 00.447 0 4.253 4.253 0 00.525-.063zm17.515 8.868l-.585.058h-.532a9.668 9.668 0 01-1.792-.186 5.891 5.891 0 01-1.882-.691 4.333 4.333 0 01-1.462-1.382 3.993 3.993 0 01-.6-2.292 3.807 3.807 0 01.484-1.957 4.137 4.137 0 011.308-1.372 6.077 6.077 0 011.93-.819 10.2 10.2 0 012.346-.27h.463a4.4 4.4 0 01.463.037 4.943 4.943 0 00-.064.393 4.173 4.173 0 00-.027.441 5.743 5.743 0 00-.8-.053 11.322 11.322 0 00-1.892.159 5.248 5.248 0 00-1.66.569 3.19 3.19 0 00-1.18 1.111 3.839 3.839 0 00.048 3.663 3.563 3.563 0 001.223 1.148 4.855 4.855 0 001.6.569 9.783 9.783 0 001.622.149h.484a5.49 5.49 0 00.574-.053 4.216 4.216 0 00-.069.778zm10.979-4.376a5.1 5.1 0 01-.25 1.643 4.2 4.2 0 01-2.276 2.483 4.785 4.785 0 01-2.031.4 4.934 4.934 0 01-2.127-.4 4.11 4.11 0 01-1.409-1.037 3.924 3.924 0 01-.787-1.446 5.774 5.774 0 01-.245-1.643 4.992 4.992 0 01.282-1.632 4.44 4.44 0 01.84-1.478 4.3 4.3 0 011.42-1.063 4.578 4.578 0 012-.409 4.966 4.966 0 012.127.409 4.057 4.057 0 011.42 1.063 4.147 4.147 0 01.782 1.478 5.848 5.848 0 01.254 1.632zm-8.2 0a4.355 4.355 0 00.25 1.5 3.557 3.557 0 00.723 1.2 3.387 3.387 0 001.143.8 3.8 3.8 0 001.5.287 4.009 4.009 0 001.542-.287 3.3 3.3 0 001.159-.8 3.477 3.477 0 00.723-1.2 4.253 4.253 0 00.255-1.5 4.541 4.541 0 00-.255-1.5 3.483 3.483 0 00-.723-1.223 3.313 3.313 0 00-1.159-.819 3.924 3.924 0 00-1.542-.3 3.764 3.764 0 00-1.5.3 3.387 3.387 0 00-1.138.814 3.568 3.568 0 00-.723 1.223 4.413 4.413 0 00-.254 1.505zm30.279-4.806V23.14c0-.675-.027-1.313-.053-1.919a3.855 3.855 0 00.494 0 3.392 3.392 0 00.532-.085c0 .3-.043.7-.048 1.2s0 1.063 0 1.6v9.767a3.493 3.493 0 00.027.532c-.532.064-.962.112-1.335.133s-.755.037-1.148.037a9.672 9.672 0 01-1.755-.175 5.636 5.636 0 01-1.792-.659 3.866 3.866 0 01-1.951-3.6 4.339 4.339 0 01.457-2.047 3.844 3.844 0 011.244-1.414 5.5 5.5 0 011.856-.8 9.635 9.635 0 012.308-.261h.659a5.434 5.434 0 01.585.053zm0 1.133c-.25-.037-.463-.064-.638-.074s-.372 0-.585 0a9.039 9.039 0 00-2 .213 4.594 4.594 0 00-1.558.638 3.121 3.121 0 00-1 1.138 3.982 3.982 0 00.037 3.44 3.4 3.4 0 001.063 1.175 4.381 4.381 0 001.51.649 7.5 7.5 0 001.717.2h.712a7.114 7.114 0 00.755-.074zm4.975.462a2.293 2.293 0 00-.074-.409 1.281 1.281 0 00-.128-.388 10.044 10.044 0 011.67-.447 9.785 9.785 0 011.6-.128 3.414 3.414 0 012.34.7 2.712 2.712 0 01.723 2.074v1.063c0 .431 0 .84-.027 1.265s0 .824-.027 1.2 0 .649 0 .835v1.01a6.3 6.3 0 00.037.707 19.011 19.011 0 01-2.579.165 11.166 11.166 0 01-1.521-.1 4.945 4.945 0 01-1.393-.388 2.563 2.563 0 01-1.021-.824 2.371 2.371 0 01-.388-1.425 2.127 2.127 0 01.4-1.3 2.882 2.882 0 011.18-.861 7.375 7.375 0 011.909-.468 21.189 21.189 0 012.6-.138v-.696a3.11 3.11 0 00-.165-.851 1.6 1.6 0 00-.372-.643 1.792 1.792 0 00-.691-.425 2.861 2.861 0 00-1.063-.16 6.641 6.641 0 00-1.6.175 13.986 13.986 0 00-1.409.452zm5.253 2.8c-.707 0-1.372.027-1.994.074a7.545 7.545 0 00-1.654.3 2.77 2.77 0 00-1.133.627 1.43 1.43 0 00-.415 1.063 1.638 1.638 0 00.3 1.063 2.127 2.127 0 00.808.606 3.929 3.929 0 001.154.3 12.4 12.4 0 001.335.074h.883a5.2 5.2 0 00.638-.069zm5.136-4.081q0 .282.032.782v6.139c.17-.494.362-.973.574-1.446a17.316 17.316 0 01.792-1.563 15.275 15.275 0 01.962-1.5 9.84 9.84 0 011.117-1.281 5.461 5.461 0 011.2-.888 2.531 2.531 0 011.239-.335 1.744 1.744 0 011.063.3 1.887 1.887 0 01.606.883 5.5 5.5 0 01.266 1.4c.048.532.064 1.17.064 1.861v4.456h-.441a3.428 3.428 0 00-.505.053 4.2 4.2 0 01.043-.686c.043-.271 0-.569.037-.883s0-.633.027-.946 0-.617 0-.9v-.372c0-.681 0-1.3-.032-1.845a7.975 7.975 0 00-.16-1.414 2.185 2.185 0 00-.372-.888.829.829 0 00-.686-.308 1.994 1.994 0 00-1.1.383 6.253 6.253 0 00-1.143 1.01 11.389 11.389 0 00-1.111 1.462 17.215 17.215 0 00-1.01 1.744 27.303 27.303 0 00-.867 1.829 16.417 16.417 0 00-.532 1.755h-.872c0-.372.043-.893.053-1.6s0-1.393 0-2.127V29.8c0-.744 0-1.494-.048-2.26s-.08-1.43-.138-2a3.722 3.722 0 00.447 0 4.854 4.854 0 00.495-.071zm17.515 8.868c-.213 0-.4.043-.585.058s-.362 0-.532 0a9.667 9.667 0 01-1.792-.186 5.849 5.849 0 01-1.861-.686 4.381 4.381 0 01-1.462-1.382 3.993 3.993 0 01-.59-2.276 3.807 3.807 0 01.484-1.957 4.137 4.137 0 011.308-1.372 6.078 6.078 0 011.93-.819 10.2 10.2 0 012.345-.271h.463a4.5 4.5 0 01.468.037 3.383 3.383 0 00-.069.393 4.182 4.182 0 00-.027.441 5.743 5.743 0 00-.8-.053 11.322 11.322 0 00-1.892.159 5.248 5.248 0 00-1.66.569 3.243 3.243 0 00-1.18 1.111 3.828 3.828 0 00.048 3.663 3.663 3.663 0 001.223 1.148 4.9 4.9 0 001.6.569 9.8 9.8 0 001.627.149h.479a5.492 5.492 0 00.574-.053 4.734 4.734 0 00-.1.755zm2.988-4.306a4.689 4.689 0 00.287 1.643 3 3 0 001.914 1.845 4.615 4.615 0 001.478.223 6.912 6.912 0 001.478-.16 4.3 4.3 0 001.26-.473 2.552 2.552 0 00.2.649 6.291 6.291 0 01-1.324.532 6.152 6.152 0 01-1.675.2 5.785 5.785 0 01-1.68-.239 3.812 3.812 0 01-2.483-2.228 5.5 5.5 0 01-.388-2.185 4.753 4.753 0 01.314-1.744 4.255 4.255 0 01.909-1.43 4.057 4.057 0 011.382-.946 4.493 4.493 0 011.771-.346 3.722 3.722 0 012.829 1.021 4.009 4.009 0 01.962 2.871 1.063 1.063 0 01-.058.388.314.314 0 01-.149.17c-.383.037-.845.064-1.382.09s-1.106.048-1.7.064-1.2.032-1.8.037h-1.67zm3.366-3.913a3.376 3.376 0 00-1.276.239 3.3 3.3 0 00-1.063.67 3.339 3.339 0 00-.734 1.026 3.3 3.3 0 00-.314 1.292h2.207l1.723-.032 1.441-.043c.425 0 .771-.037 1.026-.058a3.887 3.887 0 00-.16-1.159 2.515 2.515 0 00-.532-.978 2.7 2.7 0 00-.931-.686 3.637 3.637 0 00-1.425-.255zM44.303 23.087s-.048.3-.064.457-.043.484-.043.484c-1.329-.122-7.258-.4-7.609 4.185-.314 6 6.96 5.317 7.619 5.221a2.194 2.194 0 01-.053.441 1.247 1.247 0 00-.027.415c-1.255.308-9.167.346-8.6-6.333.839-5.652 8.777-4.87 8.777-4.87zm47.232.121c.952-.106 7.391-1.016 7.683 2.765.213 2.919-3.19 3.19-3.19 3.19s3.961 6.381 8.773 7.125a3.151 3.151 0 00-.223.362 2.5 2.5 0 00-.1.393c-4.759-.532-9.635-7.784-9.635-7.784l.4-.707c.112-.053 3.281.085 3-2.659s-5.727-1.978-5.727-1.978l.048 7.689.1 2.616s-.388.027-.606.027a5.46 5.46 0 00-.564.048s.1-3.722.1-5.8-.059-5.287-.059-5.287z" fill="#333"/><path d="M58.078 11.913C74.119 14.04 89.22 24.547 89.22 24.547S75.427 10.3 62.289 11.148s-2.972 0-4.254.058-4.28.452-4.28.452h.045c-13.123.712-31.536 15-41.075 17.637-6.983-2.281-8.945-8.816-8.61-13.442.271-3.722 2.435-11.575 7.592-14.622a12.107 12.107 0 012.127-.069c7.072.415 7.805 7.9 7.805 7.9s2.553-8.591-4.705-9.08A9.326 9.326 0 0014.69.1h.027s-2.265.382-3.233.69A30.892 30.892 0 008.4 2.183C3.466 4.533.9 10.441.164 15.444c-.872 5.966 1.648 13.782 8.661 14.282a27.851 27.851 0 003.929.33 28.925 28.925 0 003.722-.447c9.088-1.335 27.969-14.149 41.602-17.696z" transform="translate(.002 .039)" fill="url(#a)"/></svg>