<svg xmlns="http://www.w3.org/2000/svg" width="50" viewBox="0 0 171.5 55.4"><path d="M21.598 12.7c.5.8.3 1.8-.5 2.3-.7.6-1.7.5-2.2-.1l-.1-.1-5.9-8.2c-.5-.8-.3-1.8.5-2.3.7-.6 1.7-.5 2.2.1l.1.1 5.9 8.2zm7.1-1c0 .9-.8 1.7-1.8 1.6-.9.1-1.7-.6-1.8-1.6V1.6c0-.9.8-1.7 1.8-1.6.9-.1 1.7.6 1.8 1.6v10.1zm7.3 1.4c-.6.7-1.6.8-2.2.2h-.1c-.8-.5-1-1.5-.5-2.3l5.9-8.2c.6-.7 1.6-.8 2.2-.2h.1c.8.5 1 1.5.5 2.3l-5.9 8.2zm-21 3.6c.9.3 1.3 1.3 1 2.2-.2.9-1.1 1.4-2 1.2l-9.6-3.1c-.9-.3-1.3-1.3-1-2.2.2-.9 1.1-1.4 2-1.2l9.6 3.1zm-4.3 6.6c.9-.2 1.8.3 2 1.2.3.9-.1 1.9-1 2.2l-9.6 3.1c-.9.2-1.8-.3-2-1.2-.3-.9.1-1.9 1-2.2l9.6-3.1zm29.3 14c-1.4 1.4-3 2.5-4.7 3.4-1.8 1-3.8 1.4-5.9 1.4-1.9 0-3.8-.3-5.5-1-1.6-.7-3.2-1.6-4.5-2.7-1.3-1.2-2.3-2.6-3.1-4.1-1.5-3.3-1.5-7 0-10.3.7-1.6 1.7-3 3-4.2 2.8-2.5 6.4-3.9 10.2-3.8 1.9 0 3.7.4 5.4 1.1 1.6.7 3.2 1.6 4.5 2.8 1.3 1.2 2.3 2.6 3.1 4.2.8 1.6 1.1 3.3 1.1 5.1v11.5c0 .5-.2.9-.5 1.2-.7.7-1.9.7-2.6 0-.4-.3-.6-.7-.5-1.2v-3.4zm-3.3-1.2c1-.9 1.7-1.9 2.3-3.1.6-1.2.9-2.5 1-3.9 0-1.3-.3-2.6-.8-3.8-.6-1.2-1.3-2.2-2.3-3.1-1-.9-2.1-1.6-3.4-2.1-1.3-.5-2.7-.8-4.1-.8-1.4 0-2.8.3-4.1.8-1.3.5-2.4 1.2-3.4 2.1-1 .9-1.7 1.9-2.3 3.1-.6 1.2-.8 2.5-.8 3.8 0 1.3.3 2.6.8 3.8.5 1.2 1.3 2.3 2.3 3.1 1 .9 2.1 1.6 3.4 2.1 1.3.5 2.7.8 4.1.8 1.4 0 2.7-.2 4-.7l3.3-2.1zm55 4.4c1.6 0 3.1-.3 4.6-.9 1.4-.6 2.7-1.3 3.9-2.3.2-.2.4-.3.7-.3.4-.1.8.2.9.7v.2c0 .2-.1.4-.2.6-1.2 1.3-2.6 2.3-4.3 2.8-1.8.6-3.7.9-5.6.9-1.9 0-3.8-.3-5.5-1-1.7-.7-3.2-1.6-4.5-2.8-1.3-1.2-2.3-2.6-3.1-4.2-2.2-5-1-10.8 3.1-14.4 1.3-1.2 2.8-2.1 4.5-2.8 1.8-.7 3.6-1 5.5-1 1.8 0 3.7.3 5.4 1 1.6.7 3.2 1.6 4.5 2.7.2.2.3.4.3.7.1.4-.2.8-.7.9h-.2c-.2 0-.5-.1-.7-.2-1.1-1.1-2.4-1.9-3.9-2.4-1.5-.6-3.1-.9-4.7-.9s-3.3.3-4.8.9c-1.5.6-2.8 1.4-3.9 2.5-1.1 1-2 2.2-2.6 3.6-.6 1.4-1 2.9-1 4.4 0 1.5.3 3 1 4.4.6 1.4 1.5 2.6 2.6 3.6 2.4 2.1 5.5 3.3 8.7 3.3zm12.5-11.4c0-3.6 1.5-6.9 4.2-9.3 1.3-1.2 2.8-2.1 4.5-2.8 1.8-.7 3.6-1 5.5-1s3.8.3 5.5 1c1.7.7 3.2 1.6 4.5 2.8 1.3 1.2 2.3 2.6 3.1 4.2.8 1.6 1.1 3.3 1.1 5.1 0 3.6-1.5 6.9-4.2 9.3-1.3 1.2-2.9 2.2-4.6 2.8-1.8.7-3.7 1-5.6 1-1.9 0-3.8-.3-5.5-1-1.7-.7-3.2-1.6-4.5-2.8-1.3-1.2-2.3-2.6-3.1-4.2-.6-1.6-.9-3.4-.9-5.1zm1.9 0c0 1.5.3 3 1 4.4.6 1.4 1.5 2.6 2.6 3.6 5 4.4 12.4 4.4 17.4 0 1.1-1 2-2.2 2.7-3.6.7-1.4 1-2.9 1-4.4 0-1.5-.3-3-1-4.4-.7-1.4-1.6-2.6-2.7-3.6-1.1-1.1-2.5-1.9-3.9-2.5-3.1-1.2-6.5-1.2-9.6 0-1.5.6-2.8 1.4-3.9 2.5-1.1 1-2 2.2-2.6 3.6-.7 1.4-1 2.9-1 4.4zm65 12.3c0 .2-.1.5-.3.6-.2.2-.4.2-.6.2-.4.1-.8-.2-.9-.7V25.3c0-1-.1-2-.4-3-.3-.9-.7-1.8-1.3-2.5-.6-.7-1.3-1.3-2.1-1.7-.9-.4-2-.6-3-.6-1.1 0-2.2.2-3.2.7-.9.4-1.8 1-2.5 1.7s-1.3 1.6-1.6 2.5c-.4.9-.6 1.9-.6 2.9v16.1c0 .5-.4.8-.9.8-.4.1-.8-.2-.9-.7V25.3c0-1-.1-2-.4-3-.3-.9-.7-1.8-1.3-2.5-.6-.7-1.3-1.3-2.2-1.7-.9-.4-2-.6-3-.6-1.1 0-2.2.2-3.2.6-.9.4-1.7.9-2.4 1.6-.7.7-1.2 1.5-1.6 2.4-.4.9-.6 1.9-.6 2.9v16.2c.1.4-.2.8-.7.9h-.2c-.2 0-.4-.1-.6-.2-.2-.2-.3-.4-.3-.6V16.8c0-.2.1-.5.3-.6.2-.2.4-.2.6-.2.4-.1.8.2.9.7v3.4c1-1.4 2.3-2.5 3.8-3.3 1.3-.6 2.7-.9 4.1-.9 1.8-.1 3.6.5 5.1 1.5 1.4.9 2.4 2.3 3 3.8.7-1.6 1.9-2.9 3.4-3.8 1.6-.9 3.4-1.4 5.2-1.4 1.3 0 2.6.3 3.8.8 1 .5 2 1.1 2.7 2 .7.9 1.3 1.9 1.7 3 .4 1.2.6 2.4.6 3.7v15.9h-.4zm-121-4.1c1.4 1.4 3 2.5 4.7 3.4 1.8 1 3.8 1.4 5.9 1.4 1.9 0 3.8-.3 5.5-1 1.6-.7 3.2-1.6 4.5-2.7 1.3-1.2 2.3-2.6 3.1-4.1 1.5-3.3 1.5-7 0-10.3-.7-1.6-1.7-3-3-4.2-2.8-2.5-6.4-3.9-10.2-3.8-1.9 0-3.7.4-5.4 1.1-1.6.7-3.2 1.6-4.5 2.8-1.3 1.2-2.3 2.6-3.1 4.2-.8 1.6-1.1 3.3-1.1 5.1v24.5c0 .5.2.9.5 1.2.7.7 1.9.7 2.6 0 .4-.3.6-.7.5-1.2V37.3zm3.3-1.2c-1-.9-1.7-1.9-2.3-3.1-.6-1.2-.9-2.5-1-3.9 0-1.3.3-2.6.8-3.8.6-1.2 1.3-2.2 2.3-3.1 1-.9 2.1-1.6 3.4-2.1 1.3-.5 2.7-.8 4.1-.8 1.4 0 2.8.3 4.1.8 1.3.5 2.4 1.2 3.4 2.1 1 .9 1.7 1.9 2.3 3.1.6 1.2.8 2.5.8 3.8 0 1.3-.3 2.6-.8 3.8-.6 1.2-1.4 2.2-2.3 3.1-1 .9-2.1 1.6-3.4 2.1-1.3.5-2.7.8-4.1.8-1.4 0-2.7-.2-4-.7l-1.8-1.1-1.5-1z" fill="#505050" opacity=".75"/></svg>