<svg xmlns="http://www.w3.org/2000/svg" width="33.462" height="32.4"><path d="M16.562 9.7a1.337 1.337 0 01-.4 1.8 1.266 1.266 0 01-1.8-.2L9.762 5a1.337 1.337 0 01.4-1.8 1.266 1.266 0 011.8.2zm5.4-.8a1.24 1.24 0 01-1.3 1.2 1.24 1.24 0 01-1.3-1.2V1.2a1.24 1.24 0 011.3-1.2 1.24 1.24 0 011.3 1.2zm5.5 1.1a1.363 1.363 0 01-1.8.2 1.3 1.3 0 01-.4-1.8l4.5-6.3a1.363 1.363 0 011.8-.2 1.3 1.3 0 01.4 1.8zm-16 2.8a1.256 1.256 0 01.7 1.7 1.284 1.284 0 01-1.6.9l-7.3-2.4a1.256 1.256 0 01-.7-1.7 1.284 1.284 0 011.6-.9zm-3.3 5a1.376 1.376 0 011.6.9 1.43 1.43 0 01-.7 1.7l-7.4 2.4a1.376 1.376 0 01-1.6-.9 1.43 1.43 0 01.7-1.7zm22.4 10.8a13.85 13.85 0 01-3.6 2.6 9.969 9.969 0 01-4.5 1.1 14.211 14.211 0 01-4.2-.7 11.258 11.258 0 01-3.5-2.1 8.215 8.215 0 01-2.3-3.2 9.021 9.021 0 01-.9-4 10.065 10.065 0 01.8-3.9 10.449 10.449 0 012.3-3.2 12.277 12.277 0 013.5-2.2 12.307 12.307 0 014.4-.8 11.342 11.342 0 017.6 3 10.76 10.76 0 012.4 3.2 8.6 8.6 0 01.9 3.9v8.8a.975.975 0 01-.4.9 1.45 1.45 0 01-2 0 1.086 1.086 0 01-.4-.9v-2.5zm-2.5-.9a8.879 8.879 0 001.8-2.4 7.349 7.349 0 00.7-3 7.173 7.173 0 00-.6-2.9 8.068 8.068 0 00-1.7-2.4 7.6 7.6 0 00-2.6-1.6 8.291 8.291 0 00-3.2-.6 7.79 7.79 0 00-3.1.6 8.69 8.69 0 00-2.6 1.6 8.068 8.068 0 00-1.7 2.4 7.308 7.308 0 000 5.8 8.068 8.068 0 001.7 2.4 7.6 7.6 0 002.6 1.6 8.308 8.308 0 006.2 0"/></svg>